<svg width="483" height="160" viewBox="0 0 483 160" fill="none" xmlns="http://www.w3.org/2000/svg">
<path d="M5.26839 136C0.768391 133 -5.73161 128 9.76839 122C12.2684 122.5 17.2684 124.2 17.2684 127C17.2684 130.5 19.7684 130.5 14.7684 136C9.76837 141.5 9.76839 139 5.26839 136Z" fill="#C50000"/>
<path d="M460.591 15.3688C454.591 14.3688 450.591 12.8688 458.091 5.36881C458.924 2.70214 461.991 -1.93119 467.591 0.868806C474.591 4.36881 472.091 5.36881 467.591 9.86881C463.091 14.3688 466.591 16.3688 460.591 15.3688Z" fill="#C50000"/>
<path d="M477.697 146.373C480.387 152.849 477.529 157.657 475.5 158.5C471.338 160.229 474.69 156.476 472 150C470.775 147.052 468.207 146.826 466.5 145C464.457 142.815 465.323 139.35 467.591 138.408C469.93 137.436 473.82 137.147 475.647 139C477.07 140.445 476.519 143.536 477.697 146.373Z" fill="#C50000"/>
</svg>
