<svg width="442" height="179" viewBox="0 0 442 179" fill="none" xmlns="http://www.w3.org/2000/svg">
<path d="M207.5 100L208.5 98.5C209 98 210.2 97.7 211 100.5L212.5 104.5L215 106H216.5V103.5L215.5 100L214.5 96.5L216.5 95L221 108H224L226 108.5C227 109.667 229.6 111.4 232 109L239.5 100L235.5 110.5L238.5 111L241.5 108V110L238.5 116.5L236 120.5L238.5 126.5L243 131.5L245.5 132L249 131C249.833 131.167 251.6 131.5 252 131.5C252.4 131.5 253 131.833 253.25 132V133.5L248 134.188C246.667 134.792 243.9 136 243.5 136C243.1 136 242.667 138 242.5 139L243 141L241.5 142.5L240 145L243 146.5L242.5 148.5L244.5 150L248 148L234.5 171.5C228 175.5 215 184.5 203 171.5L200.5 168L198.5 163L196.5 156V152.5L194.5 151L193.5 150L193 147.5L194 147L195 147.5L197 146L196.5 142.5L194 138.5L193 134.5L196.5 138L200 139.5L202 137.5L202.5 135L201.5 134L198.5 134.5L198 133.5V131.5L203.5 129.5L207 127L207.5 122.5L206.5 119.5L206 116.5L206.5 114.5L209.5 111L210 108L207.5 100Z" fill="#C50000"/>
<path d="M208.5 36.5C207.5 35 205.5 28.5 215.5 27.5C217 27.5 218.5 28 219 31C219.5 34 220.9 35.7 216.5 38.5C213.5 40 211.5 41 208.5 36.5Z" fill="#C50000"/>
<path d="M236.5 35.5C237.5 32.5 236.5 33.5 240.5 26.5C244.414 24.2636 245.696 30.0735 249.5 31.5C252 33 253.75 33.5 251.5 38C251 39 250 41.5 247.5 40C246.833 39.8333 245.3 39.8 244.5 41C243.5 42.5 241.5 43.5 238.5 41.5C235.5 39.5 235.5 38.5 236.5 35.5Z" fill="#C50000"/>
<path d="M211 75.5C211 72 210 70 215 66.5C218 67.5 221 69.5 221 74.5C220.833 76.3333 219.4 79.9 215 79.5C213 79.5 211.5 78.5 211 75.5Z" fill="#C50000"/>
<path d="M244 82C244 81 244 78.5 247 77.5C248.333 77.6667 250 79.5 249.5 82C249 83.3333 247.6 85.8 246 85C244 84.5 244 82.8 244 82Z" fill="#C50000"/>
<path d="M255.435 92.638C254.959 93.7101 254.543 95.9567 255.5 95C256.5 94 255.435 92.638 255.435 92.638Z" fill="#C50000"/>
<path d="M63.2475 133C59.9812 132.292 54.4286 129.813 58.3481 125.564C59.1647 124.384 61.4977 122.731 64.2974 125.564L67.447 128.751C67.447 128.751 70.2466 133 63.2475 133Z" fill="#C50000"/>
<path d="M19 18.9883C19 24.5111 14.5228 25.4883 8.99997 25.4883C3.47712 25.4883 7 21.5 3.49995 18.9883C0 14.5 -2.0229 11.4882 3.49995 11.4882C10.9999 11.4882 19 13.4654 19 18.9883Z" fill="#C40000"/>
<path d="M342 82.5H338C337 83.5 338 86 341 87.5L359 94.5C359.833 95.5 362 97.1 364 95.5C364.667 95.1667 365.5 93.5 363 92L342 82.5Z" fill="#C50000"/>
<path d="M418.5 62C420.667 59.3333 424.5 51.5 424.5 43.5C427 47 431 52 435.5 46.5L440 41L441.5 41.5L438 48.5C439.5 54.1667 439.9 66.7 429.5 71.5C426.833 72.6667 420 74 418.5 70L416.5 63.5L418.5 62Z" fill="#C50000"/>
<path d="M309.5 9.5C309.5 13.9183 306.918 16 302.5 16C298.082 16 295 14.4183 295 10C295 5.58172 298.082 0.5 302.5 0.5C306.918 0.5 309.5 5.08172 309.5 9.5Z" fill="#C50000"/>
<path d="M252.5 97.5C252 99 253 99.5 253 99C253 98.6 252.667 97.8333 252.5 97.5Z" fill="#C50000"/>
<path d="M275 119C275.5 118 280 117 287 116.5C291 116.214 283.5 121.4 277.5 121C276 120.833 273.4 120.2 275 119Z" fill="#C50000"/>
<path d="M315 117.5C315 120.261 314.5 122.5 310.5 123C307.462 123 304.5 122.761 304.5 120C304.5 117.239 305.962 113.5 309 113.5C312.038 113.5 315 114.739 315 117.5Z" fill="#C50000"/>
<path d="M331.5 30L334.5 35.5H337L339 34L341 35L342 38.5L344.5 38.25L348.5 37.5L347.5 40L344 45.5L339 52C336.333 54.3333 332.3 59.4 337.5 61L344.5 63L346.5 67L345.5 67.5C344.833 67.3333 343.4 67 343 67H340.5L338.5 66.1875C338.167 64.2917 334 64 327.5 66.1875C325.833 66.9583 320 68.5 317.5 74.5C317.333 76.8333 318.682 80 320.5 77.5C321.833 75.6667 325.1 72.3 327.5 73.5C328.667 74 330.2 75.6 327 78C324.667 79.5 323 81.5 326 86.5C326.667 89.8333 325.1 96.6 313.5 97C311 97 307 95.8 304 89.5C302.333 86 303.5 79.5 310 76.5L312 75L315 75.5L317 71.5L310.5 68L308 67L308.5 65H307L305.5 64V62.5L305 60.5L304 59L304.5 57V55C304 54.6667 303 53.9 303 53.5C303 53.1 302 52.6667 301.5 52.5L304.5 50.5L303 48L302.5 45H304.5L305.5 42.5L306 39.5L306.5 36.5H308.5L310 33.5V31L311 32.5L314 34L320 32L322.5 28L326 24.5H329L331.5 30Z" fill="#C50000"/>
</svg>
