<svg width="901" height="105" viewBox="0 0 901 105" fill="none" xmlns="http://www.w3.org/2000/svg">
<path d="M18.9251 22.5C18.9251 28.0229 14.4479 29 8.92508 29C3.40223 29 6.92511 25.0118 3.42506 22.5C-0.0748901 18.0118 -2.09779 15 3.42506 15C10.9251 15 18.9251 16.9772 18.9251 22.5Z" fill="#C40000"/>
<path d="M109 76H106.5L105 77L104.5 76L103.5 77L102 77.5L103.5 78.5V81L105 87C105 90 106.2 96.8 111 100C114.667 102.333 122.2 106.2 123 103C122 100.5 120.6 94.2 123 89C123.667 85.6667 124.4 78.7 122 77.5C119.6 76.3 118.667 76.6667 118.5 77H115C115 76.1667 115.2 74.5 116 74.5C116.8 74.5 115 73.5 114 73L111 74.5L109 76Z" fill="#C40000"/>
<path fill-rule="evenodd" clip-rule="evenodd" d="M805.4 9.49836C804.214 7.9922 802.556 7.00002 800.5 7.00002C796.082 7.00002 793 12.0817 793 16.5C793 20.9183 796.082 22.5 800.5 22.5C804.918 22.5 807.5 20.4183 807.5 16C807.5 15.2638 807.428 14.523 807.288 13.7996L817.231 6.01749C818.516 5.81146 820.998 4.76527 820.643 2.2287C820.697 1.48529 819.689 -0.0821419 817.123 1.30173L805.4 9.49836Z" fill="#C50000"/>
<path d="M878 71C880.167 68.3333 884 60.5 884 52.5C886.5 56 890.5 61 895 55.5L899.5 50L901 50.5L897.5 57.5C899 63.1667 899.4 75.7 889 80.5C886.333 81.6667 879.5 83 878 79L876 72.5L878 71Z" fill="#C50000"/>
</svg>
