<svg width="32" height="32" viewBox="0 0 32 32" fill="none" xmlns="http://www.w3.org/2000/svg">
<path d="M5 0.5H27C29.4853 0.5 31.5 2.51472 31.5 5V27C31.5 29.4853 29.4853 31.5 27 31.5H5C2.51472 31.5 0.5 29.4853 0.5 27V5C0.5 2.51472 2.51472 0.5 5 0.5Z" fill="white" stroke="#EBEBEB"/>
<path d="M9.9 12.2001C9.9 12.0001 9.8 11.8001 9.7 11.7001L8.2 9.9001V9.6001H12.8L16.4 17.5001L19.6 9.6001H24V9.9001L22.7 11.1001C22.6 11.2001 22.5 11.3001 22.6 11.5001V20.5001C22.6 20.6001 22.6 20.8001 22.7 20.9001L23.9 22.1001V22.4001H17.6V22.1001L18.9 20.8001C19 20.7001 19 20.6001 19 20.4001V13.1001L15.4 22.2001H15L10.8 13.1001V19.2001C10.8 19.5001 10.9 19.7001 11 19.9001L12.7 21.9001V22.2001H8V21.9001L9.7 19.9001C9.9 19.7001 10 19.5001 9.9 19.2001V12.2001Z" fill="black"/>
</svg>
