<svg width="25" height="24" viewBox="0 0 25 24" fill="none" xmlns="http://www.w3.org/2000/svg">
<path d="M11 23.4566H1V22.4547C1 22.189 1.10536 21.9341 1.29289 21.7462C1.48043 21.5583 1.73478 21.4528 2 21.4528H10C10.2652 21.4528 10.5196 21.5583 10.7071 21.7462C10.8946 21.9341 11 22.189 11 22.4547V23.4566Z" stroke="#F0F0F0" stroke-linecap="round" stroke-linejoin="round"/>
<path d="M10 21.4524H2V20.4504C2 20.1847 2.10536 19.9298 2.29289 19.7419C2.48043 19.554 2.73478 19.4485 3 19.4485H9C9.26522 19.4485 9.51957 19.554 9.70711 19.7419C9.89464 19.9298 10 20.1847 10 20.4504V21.4524Z" stroke="#F0F0F0" stroke-linecap="round" stroke-linejoin="round"/>
<path d="M13.0001 3.30057L7.49933 8.81305L10.9992 12.3203L16.4999 6.80787L13.0001 3.30057Z" stroke="#F0F0F0" stroke-linecap="round" stroke-linejoin="round"/>
<path d="M7.49997 8.8159L6.99997 8.31484C6.05997 7.37284 4.54997 8.86601 5.49997 9.81804L9.99997 14.3276C10.94 15.2696 12.45 13.7664 11.5 12.8244L11 12.3234" stroke="#F0F0F0" stroke-linecap="round" stroke-linejoin="round"/>
<path d="M16.5 6.81164L17 7.3127C17.94 8.25471 19.45 6.75151 18.5 5.80951L14 1.29992C13.06 0.357913 11.55 1.85109 12.5 2.80311L13 3.30418" stroke="#F0F0F0" stroke-linecap="round" stroke-linejoin="round"/>
<path d="M13.75 9.5675L24 19.8394" stroke="#F0F0F0" stroke-linecap="round" stroke-linejoin="round"/>
</svg>
