<svg width="25" height="23" viewBox="0 0 25 23" fill="none" xmlns="http://www.w3.org/2000/svg">
<path d="M17 6.01074H24V22.0448H1V6.01074H8" stroke="#231F20" stroke-linecap="round" stroke-linejoin="round"/>
<path d="M1 10.0193H24" stroke="#231F20" stroke-linecap="round" stroke-linejoin="round"/>
<path d="M13 14.0278H17" stroke="#231F20" stroke-linecap="round" stroke-linejoin="round"/>
<path d="M13 16.032H19" stroke="#231F20" stroke-linecap="round" stroke-linejoin="round"/>
<path d="M13 18.0361H18" stroke="#231F20" stroke-linecap="round" stroke-linejoin="round"/>
<path d="M12.5 1C11.837 1 11.2011 1.26395 10.7322 1.73379C10.2634 2.20363 10 2.84087 10 3.50533V8.01492H15V3.50533C15 3.17632 14.9353 2.85054 14.8097 2.54658C14.6841 2.24262 14.4999 1.96643 14.2678 1.73379C14.0356 1.50115 13.76 1.31661 13.4567 1.19071C13.1534 1.0648 12.8283 1 12.5 1V1Z" stroke="#231F20" stroke-linecap="round" stroke-linejoin="round"/>
<path d="M7.5 16.0314C8.32843 16.0314 9 15.3586 9 14.5285C9 13.6985 8.32843 13.0256 7.5 13.0256C6.67157 13.0256 6 13.6985 6 14.5285C6 15.3586 6.67157 16.0314 7.5 16.0314Z" stroke="#231F20" stroke-linecap="round" stroke-linejoin="round"/>
<path d="M10 19.0378H5.00001C4.93871 18.3081 5.16667 17.5836 5.63456 17.021C6.10244 16.4585 6.77261 16.1032 7.50001 16.032C8.2274 16.1032 8.89757 16.4585 9.36546 17.021C9.83334 17.5836 10.0613 18.3081 10 19.0378V19.0378Z" stroke="#231F20" stroke-linecap="round" stroke-linejoin="round"/>
</svg>
