<svg width="19" height="24" viewBox="0 0 19 24" fill="none" xmlns="http://www.w3.org/2000/svg">
<path d="M17.6324 11.0213V17.5352C17.6324 18.8641 17.1056 20.1386 16.1679 21.0782C15.2302 22.0179 13.9585 22.5458 12.6324 22.5458H9.29238C8.45054 22.5456 7.62237 22.3325 6.88467 21.926C6.14696 21.5196 5.5236 20.9331 5.07237 20.2209C3.35237 17.5352 1.21238 13.0256 1.21238 13.0256C1.04734 12.786 0.974673 12.4945 1.00785 12.2052C1.04103 11.9159 1.17781 11.6486 1.3928 11.4527C1.60778 11.2568 1.88637 11.1458 2.17686 11.1402C2.46736 11.1346 2.75001 11.2348 2.97238 11.4222L5.63237 14.5288V4.50747C5.63237 4.1088 5.79041 3.72645 6.07171 3.44455C6.35302 3.16264 6.73455 3.00427 7.13237 3.00427C7.5302 3.00427 7.91173 3.16264 8.19304 3.44455C8.47434 3.72645 8.63238 4.1088 8.63238 4.50747V10.5203" stroke="#F0F0F0" stroke-miterlimit="10"/>
<path d="M8.63237 8.51599V2.5032C8.63237 2.10452 8.79041 1.72218 9.07171 1.44028C9.35301 1.15837 9.73455 1 10.1324 1C10.5302 1 10.9117 1.15837 11.193 1.44028C11.4743 1.72218 11.6324 2.10452 11.6324 2.5032V8.51599" stroke="#F0F0F0" stroke-miterlimit="10"/>
<path d="M11.6324 10.5203V4.50747C11.6324 4.1088 11.7904 3.72645 12.0717 3.44455C12.353 3.16264 12.7345 3.00427 13.1324 3.00427C13.5302 3.00427 13.9117 3.16264 14.193 3.44455C14.4743 3.72645 14.6324 4.1088 14.6324 4.50747V10.5203" stroke="#F0F0F0" stroke-miterlimit="10"/>
<path d="M14.6324 12.0234V7.51385C14.6324 7.11518 14.7904 6.73283 15.0717 6.45093C15.353 6.16902 15.7345 6.01065 16.1324 6.01065C16.5302 6.01065 16.9117 6.16902 17.193 6.45093C17.4743 6.73283 17.6324 7.11518 17.6324 7.51385V13.5266" stroke="#F0F0F0" stroke-miterlimit="10"/>
</svg>
