<svg width="25" height="23" viewBox="0 0 25 23" fill="none" xmlns="http://www.w3.org/2000/svg">
<path d="M21.9979 8.64846H9.7179L14.0479 4.48962C14.2891 4.2492 14.4776 3.96108 14.6016 3.64362C14.7256 3.32615 14.7822 2.9863 14.7679 2.6457C14.7472 1.94021 14.4542 1.27027 13.9507 0.776838C13.4471 0.283407 12.7722 0.00495434 12.0679 6.95315e-05C11.74 -0.00238354 11.4148 0.0600942 11.1111 0.183916C10.8073 0.307737 10.531 0.490464 10.2979 0.721604L0.147899 10.9133C0.101035 10.9599 0.0638378 11.0153 0.0384535 11.0763C0.0130691 11.1374 0 11.2029 0 11.269C0 11.3352 0.0130691 11.4007 0.0384535 11.4617C0.0638378 11.5228 0.101035 11.5782 0.147899 11.6248L10.1479 21.6461C10.6133 22.1001 11.2384 22.3521 11.8879 22.3476C12.6082 22.3437 13.2979 22.0556 13.8079 21.5459C14.3181 21.031 14.6086 20.3374 14.6179 19.6118C14.6191 19.2902 14.557 18.9716 14.4352 18.6741C14.3134 18.3766 14.1342 18.1061 13.9079 17.8781L9.7179 13.6691H21.9979C22.304 13.6684 22.6049 13.5899 22.8725 13.4409C23.14 13.2919 23.3656 13.0774 23.5279 12.8173C23.8437 12.3209 24.0072 11.7425 23.9979 11.1538C24.0572 10.5571 23.8811 9.9609 23.5074 9.49268C23.1336 9.02446 22.5918 8.72144 21.9979 8.64846Z" fill="currentColor"/>
</svg>
