<svg width="25" height="23" viewBox="0 0 25 23" fill="none" xmlns="http://www.w3.org/2000/svg">
<path d="M2.01126 8.64846H14.2913L9.96126 4.48962C9.72008 4.2492 9.53151 3.96108 9.40754 3.64362C9.28358 3.32615 9.22695 2.9863 9.24126 2.6457C9.26195 1.94021 9.55491 1.27027 10.0585 0.776838C10.5621 0.283407 11.237 0.00495434 11.9413 6.95315e-05C12.2692 -0.00238354 12.5943 0.0600942 12.8981 0.183916C13.2018 0.307737 13.4782 0.490464 13.7113 0.721604L23.8613 10.9133C23.9081 10.9599 23.9453 11.0153 23.9707 11.0763C23.9961 11.1374 24.0092 11.2029 24.0092 11.269C24.0092 11.3352 23.9961 11.4007 23.9707 11.4617C23.9453 11.5228 23.9081 11.5782 23.8613 11.6248L13.8613 21.6461C13.3958 22.1001 12.7707 22.3521 12.1213 22.3476C11.401 22.3437 10.7112 22.0556 10.2013 21.5459C9.69103 21.031 9.40056 20.3374 9.39126 19.6118C9.39003 19.2902 9.45211 18.9716 9.57394 18.6741C9.69578 18.3766 9.87497 18.1061 10.1013 17.8781L14.2913 13.6691H2.01126C1.70516 13.6684 1.40426 13.5899 1.13668 13.4409C0.869108 13.2919 0.643602 13.0774 0.481255 12.8173C0.165428 12.3209 0.00200272 11.7425 0.0112553 11.1538C-0.0480633 10.5571 0.128006 9.9609 0.501785 9.49268C0.875565 9.02446 1.41736 8.72144 2.01126 8.64846Z" fill="currentColor"/>
</svg>
