<svg width="26" height="26" viewBox="0 0 26 26" fill="none" xmlns="http://www.w3.org/2000/svg">
<path d="M15.9075 13.5547L16.0123 13.6598C16.2288 13.8769 16.4858 14.0491 16.7688 14.1666C17.0517 14.2842 17.355 14.3447 17.6613 14.3447C17.9676 14.3447 18.2709 14.2842 18.5538 14.1666C18.8368 14.0491 19.0938 13.8769 19.3103 13.6598L23.9717 8.98928C24.2976 8.66385 24.5562 8.27716 24.7326 7.85138C24.9091 7.42561 24.9999 6.96912 24.9999 6.50809C24.9999 6.04706 24.9091 5.59057 24.7326 5.16479C24.5562 4.73902 24.2976 4.35233 23.9717 4.0269L21.8857 2.03027C21.5609 1.70371 21.175 1.4446 20.75 1.2678C20.3251 1.09101 19.8695 1 19.4093 1C18.9492 1 18.4936 1.09101 18.0686 1.2678C17.6437 1.4446 17.2578 1.70371 16.933 2.03027L12.2716 6.70075C12.0549 6.91763 11.883 7.17518 11.7657 7.45867C11.6484 7.74217 11.588 8.04604 11.588 8.35293C11.588 8.65982 11.6484 8.96369 11.7657 9.24719C11.883 9.53068 12.0549 9.78823 12.2716 10.0051L12.3648 10.0985" stroke="currentColor" stroke-linecap="round" stroke-linejoin="round"/>
<path d="M10.0808 12.3868L9.98758 12.2934C9.77113 12.0763 9.51408 11.904 9.23114 11.7865C8.94819 11.669 8.64491 11.6085 8.33862 11.6085C8.03233 11.6085 7.72904 11.669 7.4461 11.7865C7.16316 11.904 6.90611 12.0763 6.68965 12.2934L2.02826 16.9639C1.70234 17.2893 1.44374 17.676 1.26728 18.1018C1.09083 18.5276 1 18.9841 1 19.4451C1 19.9061 1.09083 20.3626 1.26728 20.7884C1.44374 21.2142 1.70234 21.6009 2.02826 21.9263L4.06762 23.9696C4.39241 24.2962 4.77835 24.5553 5.2033 24.7321C5.62825 24.9089 6.08386 24.9999 6.54398 24.9999C7.00411 24.9999 7.45971 24.9089 7.88466 24.7321C8.30961 24.5553 8.69555 24.2962 9.02035 23.9696L13.6817 19.2991C13.8984 19.0823 14.0703 18.8247 14.1876 18.5412C14.3049 18.2577 14.3653 17.9538 14.3653 17.647C14.3653 17.3401 14.3049 17.0362 14.1876 16.7527C14.0703 16.4692 13.8984 16.2117 13.6817 15.9948L13.5769 15.8897" stroke="currentColor" stroke-linecap="round" stroke-linejoin="round"/>
<path d="M8.46106 17.5133L17.5275 8.4292" stroke="currentColor" stroke-linecap="round" stroke-linejoin="round"/>
</svg>
