<svg width="24" height="25" viewBox="0 0 24 25" fill="none" xmlns="http://www.w3.org/2000/svg">
<path d="M7 22.0925L0.5 23.6057L2 17.132L17.6 1.49871C17.7857 1.31236 18.0063 1.16453 18.2491 1.06367C18.4919 0.962804 18.7522 0.910889 19.015 0.910889C19.2778 0.910889 19.5381 0.962804 19.7809 1.06367C20.0237 1.16453 20.2443 1.31236 20.43 1.49871L22.55 3.62323C22.736 3.80937 22.8835 4.03042 22.9841 4.27373C23.0848 4.51705 23.1366 4.77786 23.1366 5.04125C23.1366 5.30464 23.0848 5.56545 22.9841 5.80876C22.8835 6.05207 22.736 6.27312 22.55 6.45926L7 22.0925Z" stroke="#231F20" stroke-linecap="round" stroke-linejoin="round"/>
<path d="M21.86 7.1698L16.91 2.2002" stroke="#231F20" stroke-linecap="round" stroke-linejoin="round"/>
<path d="M20.44 8.5929L15.5 3.62329" stroke="#231F20" stroke-linecap="round" stroke-linejoin="round"/>
<path d="M7.22 21.8309L2.27 16.8713" stroke="#231F20" stroke-linecap="round" stroke-linejoin="round"/>
</svg>
