<svg width="442" height="179" fill="none" xmlns="http://www.w3.org/2000/svg"><path d="M207.5 100l1-1.5c.5-.5 1.7-.8 2.5 2l1.5 4 2.5 1.5h1.5v-2.5l-1-3.5-1-3.5 2-1.5 4.5 13h3l2 .5c1 1.167 3.6 2.9 6 .5l7.5-9-4 10.5 3 .5 3-3v2l-3 6.5-2.5 4 2.5 6 4.5 5 2.5.5 3.5-1c.833.167 2.6.5 3 .5.4 0 1 .333 1.25.5v1.5l-5.25.688c-1.333.604-4.1 1.812-4.5 1.812-.4 0-.833 2-1 3l.5 2-1.5 1.5-1.5 2.5 3 1.5-.5 2 2 1.5 3.5-2-13.5 23.5c-6.5 4-19.5 13-31.5 0l-2.5-3.5-2-5-2-7v-3.5l-2-1.5-1-1-.5-2.5 1-.5 1 .5 2-1.5-.5-3.5-2.5-4-1-4 3.5 3.5 3.5 1.5 2-2 .5-2.5-1-1-3 .5-.5-1v-2l5.5-2 3.5-2.5.5-4.5-1-3-.5-3 .5-2 3-3.5.5-3-2.5-8zm1-63.5c-1-1.5-3-8 7-9 1.5 0 3 .5 3.5 3.5s1.9 4.7-2.5 7.5c-3 1.5-5 2.5-8-2zm28-1c1-3 0-2 4-9 3.914-2.236 5.196 3.573 9 5 2.5 1.5 4.25 2 2 6.5-.5 1-1.5 3.5-4 2-.667-.167-2.2-.2-3 1-1 1.5-3 2.5-6 .5s-3-3-2-6zm-25.5 40c0-3.5-1-5.5 4-9 3 1 6 3 6 8-.167 1.833-1.6 5.4-6 5-2 0-3.5-1-4-4zm33 6.5c0-1 0-3.5 3-4.5 1.333.167 3 2 2.5 4.5-.5 1.333-1.9 3.8-3.5 3-2-.5-2-2.2-2-3zm11.435 10.638c-.476 1.072-.892 3.319.065 2.362 1-1-.065-2.362-.065-2.362zM63.248 133c-3.267-.708-8.82-3.187-4.9-7.436.817-1.18 3.15-2.833 5.95 0l3.149 3.187s2.8 4.249-4.2 4.249z" fill="#C50000"/><path d="M19 18.988c0 5.523-4.477 6.5-10 6.5s-2-3.988-5.5-6.5c-3.5-4.488-5.523-7.5 0-7.5 7.5 0 15.5 1.977 15.5 7.5z" fill="#C40000"/><path d="M342 82.5h-4c-1 1 0 3.5 3 5l18 7c.833 1 3 2.6 5 1 .667-.333 1.5-2-1-3.5l-21-9.5zM418.5 62c2.167-2.667 6-10.5 6-18.5 2.5 3.5 6.5 8.5 11 3L440 41l1.5.5-3.5 7c1.5 5.667 1.9 18.2-8.5 23-2.667 1.167-9.5 2.5-11-1.5l-2-6.5 2-1.5zm-109-52.5c0 4.418-2.582 6.5-7 6.5s-7.5-1.582-7.5-6 3.082-9.5 7.5-9.5 7 4.582 7 9zm-57 88c-.5 1.5.5 2 .5 1.5 0-.4-.333-1.167-.5-1.5zM275 119c.5-1 5-2 12-2.5 4-.286-3.5 4.9-9.5 4.5-1.5-.167-4.1-.8-2.5-2zm40-1.5c0 2.761-.5 5-4.5 5.5-3.038 0-6-.239-6-3s1.462-6.5 4.5-6.5c3.038 0 6 1.239 6 4zM331.5 30l3 5.5h2.5l2-1.5 2 1 1 3.5 2.5-.25 4-.75-1 2.5-3.5 5.5-5 6.5c-2.667 2.333-6.7 7.4-1.5 9l7 2 2 4-1 .5c-.667-.167-2.1-.5-2.5-.5h-2.5l-2-.813c-.333-1.895-4.5-2.187-11 0-1.667.771-7.5 2.313-10 8.313-.167 2.333 1.182 5.5 3 3 1.333-1.833 4.6-5.2 7-4 1.167.5 2.7 2.1-.5 4.5-2.333 1.5-4 3.5-1 8.5.667 3.333-.9 10.1-12.5 10.5-2.5 0-6.5-1.2-9.5-7.5-1.667-3.5-.5-10 6-13l2-1.5 3 .5 2-4-6.5-3.5-2.5-1 .5-2H307l-1.5-1v-1.5l-.5-2-1-1.5.5-2v-2c-.5-.333-1.5-1.1-1.5-1.5 0-.4-1-.833-1.5-1l3-2L303 48l-.5-3h2l1-2.5.5-3 .5-3h2l1.5-3V31l1 1.5 3 1.5 6-2 2.5-4 3.5-3.5h3l2.5 5.5z" fill="#C50000"/></svg>