<svg width="901" height="105" fill="none" xmlns="http://www.w3.org/2000/svg"><path d="M18.925 22.5c0 5.523-4.477 6.5-10 6.5s-2-3.988-5.5-6.5c-3.5-4.488-5.523-7.5 0-7.5 7.5 0 15.5 1.977 15.5 7.5zM109 76h-2.5l-1.5 1-.5-1-1 1-1.5.5 1.5 1V81l1.5 6c0 3 1.2 9.8 6 13 3.667 2.333 11.2 6.2 12 3-1-2.5-2.4-8.8 0-14 .667-3.333 1.4-10.3-1-11.5-2.4-1.2-3.333-.833-3.5-.5H115c0-.833.2-2.5 1-2.5s-1-1-2-1.5l-3 1.5-2 1.5z" fill="#C40000"/><path fill-rule="evenodd" clip-rule="evenodd" d="M805.4 9.498C804.214 7.992 802.556 7 800.5 7c-4.418 0-7.5 5.082-7.5 9.5s3.082 6 7.5 6 7-2.082 7-6.5c0-.736-.072-1.477-.212-2.2l9.943-7.783c1.285-.206 3.767-1.252 3.412-3.788.054-.744-.954-2.311-3.52-.927L805.4 9.498z" fill="#C50000"/><path d="M878 71c2.167-2.667 6-10.5 6-18.5 2.5 3.5 6.5 8.5 11 3l4.5-5.5 1.5.5-3.5 7c1.5 5.667 1.9 18.2-8.5 23-2.667 1.167-9.5 2.5-11-1.5l-2-6.5 2-1.5z" fill="#C50000"/></svg>