<?xml version="1.0" encoding="utf-8"?><svg viewBox="0 0 32 32" xmlns="http://www.w3.org/2000/svg" xmlns:xlink="http://www.w3.org/1999/xlink"><style>:root>svg{display:none}:root>svg:target{display:block}</style><svg fill="none" viewBox="0 0 25 23" id="icon-arrow-next" xmlns="http://www.w3.org/2000/svg"><path d="M2.011 8.648h12.28L9.961 4.49a2.456 2.456 0 01-.72-1.844c.021-.706.314-1.376.818-1.87A2.717 2.717 0 0111.94 0a2.485 2.485 0 011.77.722l10.15 10.191a.503.503 0 010 .712l-10 10.021a2.468 2.468 0 01-1.74.702 2.737 2.737 0 01-1.92-.802 2.799 2.799 0 01-.81-1.934 2.45 2.45 0 01.71-1.734l4.19-4.209H2.011a1.806 1.806 0 01-1.53-.852 3.01 3.01 0 01-.47-1.663 2.298 2.298 0 01.49-1.661 2.289 2.289 0 011.51-.845z" fill="currentColor"/></svg><svg fill="none" viewBox="0 0 25 23" id="icon-arrow-prev" xmlns="http://www.w3.org/2000/svg"><path d="M21.998 8.648H9.718l4.33-4.158a2.456 2.456 0 00.72-1.844 2.729 2.729 0 00-.817-1.87A2.717 2.717 0 0012.068 0a2.485 2.485 0 00-1.77.722L.148 10.913a.502.502 0 000 .712l10 10.021c.465.454 1.09.706 1.74.702a2.737 2.737 0 001.92-.802c.51-.515.8-1.209.81-1.934a2.45 2.45 0 00-.71-1.734l-4.19-4.209h12.28a1.806 1.806 0 001.53-.852 3.01 3.01 0 00.47-1.663 2.299 2.299 0 00-.49-1.661 2.289 2.289 0 00-1.51-.845z" fill="currentColor"/></svg><svg fill="none" viewBox="0 0 25 23" id="icon-experts" xmlns="http://www.w3.org/2000/svg"><path d="M17 6.01h7v16.035H1V6.01h7M1 10.02h23M13 14.028h4M13 16.032h6M13 18.036h5" stroke="#231F20" stroke-linecap="round" stroke-linejoin="round"/><path d="M12.5 1c-.663 0-1.299.264-1.768.734A2.508 2.508 0 0010 3.505v4.51h5v-4.51a2.51 2.51 0 00-1.543-2.314A2.495 2.495 0 0012.5 1v0zM7.5 16.031a1.501 1.501 0 000-3.006c-.828 0-1.5.673-1.5 1.503 0 .83.672 1.503 1.5 1.503zM10 19.038H5a2.79 2.79 0 01.635-2.017 2.779 2.779 0 011.865-.989 2.779 2.779 0 011.865.989A2.79 2.79 0 0110 19.038v0z" stroke="#231F20" stroke-linecap="round" stroke-linejoin="round"/></svg><svg fill="none" viewBox="0 0 32 32" id="icon-facebook" xmlns="http://www.w3.org/2000/svg"><path d="M27 0H5a5 5 0 00-5 5v22a5 5 0 005 5h22a5 5 0 005-5V5a5 5 0 00-5-5z" fill="#1877F2"/><path d="M24 16c0-4.4-3.6-8-8-8s-8 3.6-8 8c0 4 2.9 7.3 6.7 7.9v-5.6h-2V16h2v-1.8c0-2 1.2-3.1 3-3.1.9 0 1.8.2 1.8.2v2h-1c-1 0-1.3.6-1.3 1.2V16h2.2l-.4 2.3h-1.9V24c4-.6 6.9-4 6.9-8z" fill="#fff"/></svg><svg fill="none" viewBox="0 0 24 24" id="icon-facebook-white" xmlns="http://www.w3.org/2000/svg"><path d="M24 12c0-6.6-5.4-12-12-12S0 5.4 0 12c0 6 4.35 10.95 10.05 11.85v-8.4h-3V12h3V9.3c0-3 1.8-4.65 4.5-4.65 1.35 0 2.7.3 2.7.3v3h-1.5c-1.5 0-1.95.9-1.95 1.8V12h3.3l-.6 3.45h-2.85V24c6-.9 10.35-6 10.35-12z" fill="currentColor"/></svg><svg fill="none" viewBox="0 0 26 26" id="icon-link" xmlns="http://www.w3.org/2000/svg"><path d="M15.908 13.555l.104.105a2.33 2.33 0 003.298 0l4.662-4.67a3.503 3.503 0 00.76-3.825 3.503 3.503 0 00-.76-1.138L21.886 2.03a3.495 3.495 0 00-3.817-.762c-.425.177-.811.436-1.136.762L12.272 6.7a2.336 2.336 0 000 3.305l.093.093M10.08 12.387l-.092-.094a2.33 2.33 0 00-3.298 0l-4.662 4.67a3.503 3.503 0 00-.76 3.825c.176.426.434.813.76 1.138l2.04 2.044a3.495 3.495 0 003.817.762c.425-.177.81-.436 1.135-.762l4.662-4.67a2.335 2.335 0 00.506-2.547 2.336 2.336 0 00-.506-.758l-.105-.105M8.461 17.513l9.066-9.084" stroke="currentColor" stroke-linecap="round" stroke-linejoin="round"/></svg><svg fill="none" viewBox="0 0 32 32" id="icon-medium" xmlns="http://www.w3.org/2000/svg"><path d="M5 .5h22A4.5 4.5 0 0131.5 5v22a4.5 4.5 0 01-4.5 4.5H5A4.5 4.5 0 01.5 27V5A4.5 4.5 0 015 .5z" fill="#fff" stroke="#EBEBEB"/><path d="M9.9 12.2c0-.2-.1-.4-.2-.5L8.2 9.9v-.3h4.6l3.6 7.9 3.2-7.9H24v.3l-1.3 1.2c-.1.1-.2.2-.1.4v9c0 .1 0 .3.1.4l1.2 1.2v.3h-6.3v-.3l1.3-1.3c.1-.1.1-.2.1-.4v-7.3l-3.6 9.1H15l-4.2-9.1v6.1c0 .3.1.5.2.7l1.7 2v.3H8v-.3l1.7-2c.2-.2.3-.4.2-.7v-7z" fill="#000"/></svg><svg fill="none" viewBox="0 0 24 25" id="icon-pen" xmlns="http://www.w3.org/2000/svg"><path d="M7 22.093L.5 23.605 2 17.132 17.6 1.499a1.999 1.999 0 012.83 0l2.12 2.124a2.003 2.003 0 01.434 2.186c-.1.243-.248.464-.434.65L7 22.093zM21.86 7.17L16.91 2.2M20.44 8.593l-4.94-4.97M7.22 21.83l-4.95-4.959" stroke="#231F20" stroke-linecap="round" stroke-linejoin="round"/></svg><svg fill="none" viewBox="0 0 25 24" id="icon-prevention" xmlns="http://www.w3.org/2000/svg"><path d="M11 23.457H1v-1.002a1.003 1.003 0 011-1.002h8a.999.999 0 011 1.002v1.002zM10 21.452H2V20.45a1.003 1.003 0 011-1.002h6a.999.999 0 011 1.002v1.002zM13 3.3L7.5 8.814 11 12.32l5.5-5.512L13 3.3z" stroke="#F0F0F0" stroke-linecap="round" stroke-linejoin="round"/><path d="M7.5 8.816L7 8.315c-.94-.942-2.45.551-1.5 1.503l4.5 4.51c.94.942 2.45-.562 1.5-1.504l-.5-.5M16.5 6.812l.5.5c.94.943 2.45-.56 1.5-1.502L14 1.3c-.94-.942-2.45.551-1.5 1.503l.5.501M13.75 9.568L24 19.839" stroke="#F0F0F0" stroke-linecap="round" stroke-linejoin="round"/></svg><svg fill="none" viewBox="0 0 25 21" id="icon-reaction" xmlns="http://www.w3.org/2000/svg"><path d="M1 8.015v5.01M24 1v19.04M24 19.038L1 12.024V9.017l23-7.015v17.036z" stroke="#F0F0F0" stroke-linecap="round" stroke-linejoin="round"/><path d="M13 15.53v.612c0 .93-.369 1.823-1.025 2.48a3.496 3.496 0 01-4.95 0A3.511 3.511 0 016 16.142v-2.615" stroke="#F0F0F0" stroke-linecap="round" stroke-linejoin="round"/></svg><svg fill="none" viewBox="0 0 19 24" id="icon-support" xmlns="http://www.w3.org/2000/svg"><path d="M17.632 11.021v6.514a5.016 5.016 0 01-1.464 3.543 4.994 4.994 0 01-3.536 1.468h-3.34a4.991 4.991 0 01-4.22-2.325c-1.72-2.686-3.86-7.195-3.86-7.195a1.204 1.204 0 01.965-1.886c.29-.005.573.095.795.282l2.66 3.107V4.507a1.505 1.505 0 011.5-1.503 1.498 1.498 0 011.5 1.503v6.013" stroke="#F0F0F0" stroke-miterlimit="10"/><path d="M8.632 8.516V2.503A1.505 1.505 0 0110.132 1a1.498 1.498 0 011.5 1.503v6.013" stroke="#F0F0F0" stroke-miterlimit="10"/><path d="M11.632 10.52V4.507a1.505 1.505 0 011.5-1.503 1.498 1.498 0 011.5 1.503v6.013" stroke="#F0F0F0" stroke-miterlimit="10"/><path d="M14.632 12.023v-4.51a1.505 1.505 0 011.5-1.502 1.498 1.498 0 011.5 1.503v6.013" stroke="#F0F0F0" stroke-miterlimit="10"/></svg><svg fill="none" viewBox="0 0 32 32" id="icon-telegram" xmlns="http://www.w3.org/2000/svg"><path d="M27 0H5a5 5 0 00-5 5v22a5 5 0 005 5h22a5 5 0 005-5V5a5 5 0 00-5-5z" fill="#08C"/><path d="M8.1 15.708c4.295-1.87 7.159-3.105 8.592-3.7 4.091-1.702 4.942-1.998 5.496-2.008.122-.002.394.028.57.171.15.121.19.285.21.4.02.114.044.375.025.58-.222 2.33-1.181 7.983-1.67 10.592-.206 1.104-.613 1.474-1.006 1.51-.856.079-1.505-.565-2.334-1.108-1.297-.85-2.03-1.38-3.288-2.209-1.455-.959-.512-1.485.317-2.346.217-.226 3.987-3.655 4.06-3.966.01-.039.018-.184-.069-.26-.086-.077-.213-.05-.305-.03-.13.03-2.201 1.4-6.214 4.108-.588.404-1.12.6-1.598.59-.526-.011-1.538-.297-2.29-.542-.923-.3-1.656-.458-1.592-.968.033-.265.398-.536 1.096-.814z" fill="#fff"/></svg><svg fill="none" viewBox="0 0 32 32" id="icon-twitter" xmlns="http://www.w3.org/2000/svg"><path d="M27 0H5a5 5 0 00-5 5v22a5 5 0 005 5h22a5 5 0 005-5V5a5 5 0 00-5-5z" fill="#1DA1F2"/><path d="M24 11c-.6.3-1.2.4-1.9.5.7-.4 1.2-1 1.4-1.8-.6.4-1.3.6-2.1.8-.6-.6-1.5-1-2.4-1-2.1 0-3.7 2-3.2 4-2.7-.1-5.1-1.4-6.8-3.4-.9 1.5-.4 3.4 1 4.4-.5 0-1-.2-1.5-.4 0 1.5 1.1 2.9 2.6 3.3-.5.1-1 .2-1.5.1.4 1.3 1.6 2.3 3.1 2.3-1.2.9-3 1.4-4.7 1.2 1.5.9 3.2 1.5 5 1.5 6.1 0 9.5-5.1 9.3-9.8.7-.4 1.3-1 1.7-1.7z" fill="#fff"/></svg><svg fill="none" viewBox="0 0 24 20" id="icon-twitter-white" xmlns="http://www.w3.org/2000/svg"><path d="M24 2.25c-.9.45-1.8.6-2.85.75 1.05-.6 1.8-1.5 2.1-2.7-.9.6-1.95.9-3.15 1.2C19.2.6 17.85 0 16.5 0c-3.15 0-5.55 3-4.8 6C7.65 5.85 4.05 3.9 1.5.9.15 3.15.9 6 3 7.5c-.75 0-1.5-.3-2.25-.6 0 2.25 1.65 4.35 3.9 4.95-.75.15-1.5.3-2.25.15.6 1.95 2.4 3.45 4.65 3.45-1.8 1.35-4.5 2.1-7.05 1.8 2.25 1.35 4.8 2.25 7.5 2.25 9.15 0 14.25-7.65 13.95-14.7C22.5 4.2 23.4 3.3 24 2.25z" fill="currentColor"/></svg><svg fill="none" viewBox="0 0 32 32" id="icon-whatsapp" xmlns="http://www.w3.org/2000/svg"><path d="M27 0H5a5 5 0 00-5 5v22a5 5 0 005 5h22a5 5 0 005-5V5a5 5 0 00-5-5z" fill="#25D366"/><path fill-rule="evenodd" clip-rule="evenodd" d="M21.6 10.3C20.1 8.8 18.1 8 16 8c-4.4 0-8 3.6-8 8 0 1.4.4 2.8 1.1 4L8 24l4.2-1.1c1.2.6 2.5 1 3.8 1 4.4 0 8-3.6 8-8 0-2.1-.9-4.1-2.4-5.6zM16 22.6c-1.2 0-2.4-.3-3.4-.9l-.2-.1-2.5.7.7-2.4-.2-.3c-.7-1.1-1-2.3-1-3.5 0-3.6 3-6.6 6.6-6.6 1.8 0 3.4.7 4.7 1.9 1.3 1.3 1.9 2.9 1.9 4.7 0 3.5-2.9 6.5-6.6 6.5zm3.6-5c-.2-.1-1.2-.6-1.4-.6-.2-.1-.3-.1-.4.1-.1.2-.5.6-.6.8-.1.1-.2.1-.4.1-.2-.1-.8-.3-1.6-1-.6-.5-1-1.2-1.1-1.4-.1-.2 0-.3.1-.4l.3-.3c.1-.1.1-.2.2-.3.1-.1 0-.2 0-.3 0-.1-.4-1.1-.6-1.5-.1-.3-.3-.3-.4-.3h-.4c-.1 0-.3 0-.5.2s-.7.7-.7 1.7.7 1.9.8 2.1c.1.1 1.4 2.2 3.4 3 1.7.7 2 .5 2.4.5.4 0 1.2-.5 1.3-.9.2-.5.2-.9.1-.9-.1-.5-.3-.5-.5-.6z" fill="#fff"/></svg></svg>